<!DOCTYPE svg PUBLIC "-//W3C//DTD SVG 20010904//EN" "http://www.w3.org/TR/2001/REC-SVG-20010904/DTD/svg10.dtd">
<svg version="1.0" xmlns="http://www.w3.org/2000/svg" width="315px" height="219px" viewBox="0 0 3150 2190" preserveAspectRatio="xMidYMid meet">
<g id="layer101" fill="#0a4207" stroke="none">
<path d="M790 1481 c-344 -253 -626 -466 -628 -474 -4 -19 1253 -941 1273 -933 13 4 15 40 15 226 l0 220 618 2 617 3 0 480 0 480 -617 3 -618 2 -2 222 c-3 189 -5 223 -18 225 -8 2 -296 -204 -640 -456z"/>
</g>
<g id="layer102" fill="#1c7f16" stroke="none">
<path d="M790 1481 c-344 -253 -626 -466 -628 -474 -3 -14 1245 -937 1267 -937 16 0 13 11 -9 40 -18 23 -20 42 -20 239 l0 214 23 -21 23 -22 617 0 c339 0 617 4 617 8 0 5 -9 17 -20 27 -19 18 -20 31 -20 451 l0 434 -617 2 -618 3 -3 195 c-3 189 4 251 31 288 35 45 -88 -40 -643 -447z"/>
</g>
<g id="layer103" fill="#4a8015" stroke="none">
<path d="M1441 1194 c-27 -22 -31 -32 -31 -74 0 -41 4 -52 30 -73 16 -14 44 -28 62 -32 80 -16 108 -27 108 -40 0 -16 -30 -35 -54 -35 -9 0 -25 9 -37 21 -14 14 -30 19 -57 17 -48 -4 -52 -26 -14 -69 27 -31 35 -34 101 -37 137 -8 161 20 161 188 0 61 5 120 10 131 10 18 7 19 -39 19 -27 0 -53 -4 -56 -10 -4 -6 -17 -4 -35 5 -47 24 -113 19 -149 -11z m132 -55 c27 -14 37 -28 37 -51 0 -21 -11 -22 -62 -7 -42 11 -52 40 -20 58 22 13 19 13 45 0z"/>
<path d="M1832 1200 c-94 -58 -94 -252 0 -310 41 -25 135 -27 178 -5 17 9 39 33 50 54 17 34 18 40 4 45 -35 14 -77 6 -100 -19 -27 -30 -44 -31 -73 -7 -25 20 -36 75 -27 127 13 65 83 84 108 29 9 -20 18 -24 54 -24 24 0 46 4 49 10 11 17 -27 82 -59 101 -43 27 -140 26 -184 -1z"/>
<path d="M980 985 l0 -225 140 0 c153 0 183 8 214 54 24 37 20 93 -8 131 l-25 32 23 13 c73 39 61 167 -20 205 -24 11 -68 15 -178 15 l-146 0 0 -225z m239 139 c36 -7 53 -31 44 -62 -6 -26 -55 -42 -125 -42 l-48 0 0 55 0 55 49 0 c27 0 63 -3 80 -6z m17 -206 c11 -11 14 -25 10 -41 -6 -27 -37 -37 -112 -37 l-44 0 0 51 0 51 65 -4 c42 -2 71 -10 81 -20z"/>
<path d="M2120 985 l0 -225 55 0 55 0 0 108 1 107 40 -47 c41 -47 42 -48 101 -48 l60 0 -55 63 -54 62 26 45 c15 25 42 71 60 103 l32 57 -54 0 -54 0 -28 -52 c-40 -75 -45 -81 -61 -67 -9 7 -14 32 -14 65 l0 54 -55 0 -55 0 0 -225z"/>
</g>
<g id="layer104" fill="#1c8045" stroke="none">
<path d="M1441 1194 c-27 -22 -31 -32 -31 -74 0 -41 4 -52 30 -73 16 -14 44 -28 62 -32 80 -16 108 -27 108 -40 0 -16 -30 -35 -54 -35 -9 0 -25 9 -37 21 -14 14 -30 19 -57 17 -48 -4 -52 -26 -14 -69 27 -31 35 -34 100 -37 92 -5 138 15 152 67 5 20 11 89 12 154 l3 117 -43 0 c-29 0 -45 -5 -48 -15 -5 -13 -10 -12 -31 5 -39 30 -113 27 -152 -6z m134 -56 c24 -11 44 -52 31 -65 -3 -3 -25 -2 -48 3 -45 10 -60 33 -38 59 15 18 22 18 55 3z"/>
<path d="M1832 1200 c-94 -59 -94 -251 0 -310 27 -17 46 -20 102 -18 64 4 70 6 103 41 44 48 41 71 -10 75 -31 3 -43 -2 -62 -22 -30 -32 -49 -33 -80 -1 -43 42 -31 154 19 176 29 13 61 -1 71 -31 5 -15 15 -20 43 -20 56 0 67 11 49 46 -31 59 -62 78 -135 82 -54 2 -73 -1 -100 -18z"/>
<path d="M980 986 l0 -226 136 0 c105 0 144 4 170 16 38 18 64 58 64 99 0 30 -24 81 -41 87 -6 2 5 20 25 40 31 31 36 42 36 82 0 39 -6 52 -34 84 l-34 37 -161 3 -161 3 0 -225z m239 138 c36 -7 53 -31 44 -62 -6 -26 -56 -42 -130 -42 l-53 0 0 55 0 55 54 0 c29 0 68 -3 85 -6z m17 -206 c11 -11 14 -25 10 -41 -7 -28 -37 -37 -117 -37 l-49 0 0 51 0 51 70 -4 c47 -2 75 -9 86 -20z"/>
<path d="M2120 985 l0 -225 55 0 55 0 0 108 1 107 40 -47 c41 -47 42 -48 101 -48 l60 0 -56 62 -56 61 22 36 c11 20 29 51 40 69 10 17 27 48 39 67 l21 35 -54 0 -55 0 -38 -70 c-46 -84 -65 -81 -65 11 l0 59 -55 0 -55 0 0 -225z"/>
</g>
<g id="layer105" fill="#728015" stroke="none">
<path d="M1439 1191 c-58 -59 -29 -150 54 -171 23 -6 59 -16 80 -21 40 -11 48 -32 18 -49 -29 -15 -49 -12 -71 10 -24 24 -88 28 -96 6 -8 -21 13 -55 49 -76 40 -25 135 -27 183 -4 44 21 53 54 56 207 l3 117 -43 0 c-29 0 -45 -5 -48 -15 -5 -13 -10 -12 -31 5 -18 14 -41 20 -75 20 -41 0 -54 -5 -79 -29z m149 -57 c13 -9 22 -26 22 -41 0 -24 -2 -25 -42 -19 -51 8 -58 13 -58 35 0 39 40 52 78 25z"/>
<path d="M1840 1202 c-75 -42 -103 -165 -57 -252 32 -61 75 -82 156 -78 59 4 66 7 98 42 44 47 41 70 -10 74 -31 3 -43 -2 -62 -22 -30 -32 -49 -33 -80 -1 -43 42 -31 154 19 177 20 9 30 8 51 -6 14 -9 25 -23 25 -31 0 -17 65 -21 88 -6 17 11 -3 54 -42 91 -37 33 -135 40 -186 12z"/>
<path d="M980 986 l0 -226 136 0 c105 0 144 4 170 16 38 18 64 58 64 99 0 30 -24 81 -41 87 -6 2 5 20 25 40 31 31 36 42 36 82 0 39 -6 52 -34 84 l-34 37 -161 3 -161 3 0 -225z m276 119 c17 -23 18 -36 1 -59 -10 -13 -32 -19 -95 -23 l-82 -6 0 58 0 57 81 -4 c66 -3 83 -7 95 -23z m-16 -185 c5 -8 10 -25 10 -38 0 -29 -33 -42 -111 -42 l-59 0 0 51 0 51 76 -4 c52 -2 78 -8 84 -18z"/>
<path d="M2130 985 l0 -225 50 0 50 0 0 108 1 107 42 -48 c41 -46 43 -47 100 -47 l59 0 -56 62 -56 61 22 36 c11 20 29 50 38 66 9 17 27 47 39 68 l23 37 -54 0 -54 0 -38 -70 c-31 -58 -40 -69 -52 -59 -9 7 -14 32 -14 70 l0 59 -50 0 -50 0 0 -225z"/>
</g>
<g id="layer106" fill="#1c806f" stroke="none">
<path d="M1439 1191 c-58 -59 -29 -150 54 -171 23 -6 59 -16 80 -21 40 -11 48 -32 18 -49 -29 -15 -49 -12 -71 10 -24 24 -88 28 -96 5 -9 -21 20 -62 58 -81 22 -12 50 -15 100 -12 58 3 72 8 95 31 26 26 27 31 28 144 1 65 5 128 9 141 7 21 5 22 -39 22 -30 0 -47 -5 -51 -14 -5 -12 -11 -11 -37 5 -50 30 -112 26 -148 -10z m149 -57 c13 -9 22 -26 22 -41 0 -24 -2 -25 -42 -19 -64 10 -82 31 -52 60 20 20 43 20 72 0z"/>
<path d="M1840 1201 c-105 -56 -105 -256 0 -312 72 -39 175 -17 216 45 23 37 12 56 -32 56 -26 0 -43 -7 -60 -25 -29 -31 -48 -32 -79 0 -21 20 -25 34 -25 80 0 46 4 60 25 80 13 14 30 25 37 25 21 0 58 -29 58 -46 0 -15 65 -20 87 -6 19 12 -15 72 -56 99 -43 29 -121 31 -171 4z"/>
<path d="M980 984 l0 -225 151 3 151 3 34 37 c45 50 46 93 4 142 -29 33 -30 35 -11 41 33 10 61 54 61 94 0 48 -18 81 -59 108 -32 21 -44 23 -182 23 l-149 0 0 -226z m276 121 c17 -23 18 -36 1 -59 -10 -13 -32 -19 -95 -23 l-82 -6 0 58 0 57 81 -4 c66 -3 83 -7 95 -23z m-16 -185 c5 -8 10 -25 10 -38 0 -29 -33 -42 -111 -42 l-59 0 0 51 0 51 76 -4 c52 -2 78 -8 84 -18z"/>
<path d="M2130 985 l0 -225 45 0 45 0 0 113 1 112 47 -53 c47 -52 47 -52 106 -52 l59 0 -57 60 c-46 48 -55 63 -47 77 5 10 32 57 60 106 l50 87 -52 0 -53 0 -38 -71 c-37 -68 -39 -70 -57 -53 -14 13 -19 31 -19 71 l0 53 -45 0 -45 0 0 -225z"/>
</g>
<g id="layer107" fill="#41973d" stroke="none">
<path d="M1458 1204 c-35 -18 -48 -43 -48 -89 0 -24 8 -43 24 -60 23 -23 110 -55 148 -55 27 0 35 -30 13 -46 -26 -19 -52 -17 -75 6 -21 21 -84 28 -95 10 -10 -17 24 -69 57 -86 22 -12 50 -15 100 -12 58 3 72 8 95 31 26 26 27 31 28 144 1 65 5 128 9 141 7 21 4 22 -37 22 -31 0 -47 -5 -51 -15 -5 -13 -10 -12 -38 5 -39 23 -92 25 -130 4z m130 -70 c13 -9 22 -26 22 -41 0 -24 -2 -25 -42 -19 -64 10 -82 31 -52 60 20 20 43 20 72 0z"/>
<path d="M1845 1201 c-40 -24 -60 -49 -74 -90 -30 -90 4 -187 81 -227 39 -20 117 -18 155 6 39 23 67 64 59 85 -9 25 -71 19 -100 -10 -31 -31 -50 -32 -81 0 -21 20 -25 34 -25 80 0 46 4 60 25 80 13 14 30 25 37 25 21 0 58 -29 58 -46 0 -15 65 -20 87 -6 19 12 -15 72 -56 99 -43 29 -123 31 -166 4z"/>
<path d="M980 984 l0 -225 151 3 151 3 34 37 c45 50 46 93 4 142 -29 33 -30 35 -11 41 33 10 61 54 61 94 0 48 -18 81 -59 108 -32 21 -44 23 -182 23 l-149 0 0 -226z m260 133 c29 -15 38 -58 16 -76 -8 -7 -51 -15 -96 -18 l-80 -6 0 57 0 56 68 0 c37 0 78 -6 92 -13z m-16 -187 c20 -7 26 -16 26 -40 0 -38 -27 -50 -111 -50 l-59 0 0 50 0 50 59 0 c33 0 71 -4 85 -10z"/>
</g>
<g id="layer108" fill="#989715" stroke="none">
<path d="M1458 1204 c-35 -18 -48 -43 -48 -89 0 -24 8 -43 24 -60 23 -23 110 -55 148 -55 24 0 34 -26 18 -45 -18 -21 -56 -19 -80 5 -21 21 -65 26 -88 11 -12 -7 -11 -14 2 -40 25 -47 67 -64 148 -59 58 3 72 8 95 31 26 26 27 31 28 144 1 65 5 128 9 141 7 21 4 22 -37 22 -31 0 -47 -5 -51 -15 -5 -13 -10 -12 -38 5 -39 23 -92 25 -130 4z m130 -70 c13 -9 22 -26 22 -41 0 -24 -2 -25 -42 -19 -64 10 -82 31 -52 60 20 20 43 20 72 0z"/>
<path d="M1845 1201 c-40 -24 -60 -49 -74 -90 -22 -66 -8 -144 33 -189 70 -78 207 -67 256 21 13 24 13 29 0 37 -27 17 -68 11 -94 -15 -31 -31 -50 -32 -81 0 -21 20 -25 34 -25 80 0 46 4 60 25 80 13 14 33 25 43 25 20 0 52 -29 52 -48 0 -13 54 -15 82 -4 17 7 17 9 0 42 -37 74 -146 105 -217 61z"/>
<path d="M980 984 l0 -225 151 3 151 3 34 37 c45 50 46 93 4 142 -29 33 -30 35 -11 41 33 10 61 54 61 94 0 48 -18 81 -59 108 -32 21 -44 23 -182 23 l-149 0 0 -226z m268 130 c31 -21 26 -64 -8 -81 -14 -7 -55 -13 -92 -13 l-68 0 0 55 0 55 73 0 c50 0 80 -5 95 -16z m-24 -184 c20 -7 26 -17 26 -39 0 -40 -23 -51 -104 -51 l-66 0 0 50 0 50 59 0 c33 0 71 -4 85 -10z"/>
<path d="M2130 985 l0 -225 45 0 45 0 0 113 1 112 48 -52 c47 -52 48 -53 106 -53 l58 0 -57 60 c-46 48 -55 63 -47 77 5 10 32 57 60 106 l50 87 -52 0 -52 0 -38 -71 c-37 -69 -39 -70 -58 -53 -14 13 -19 30 -19 71 l0 53 -45 0 -45 0 0 -225z"/>
</g>
<g id="layer109" fill="#5b9b51" stroke="none">
<path d="M1458 1204 c-35 -18 -48 -43 -48 -89 0 -24 8 -43 24 -60 23 -23 110 -55 148 -55 24 0 34 -26 18 -45 -17 -21 -53 -19 -83 5 -26 21 -63 26 -85 11 -21 -13 11 -67 50 -87 47 -24 159 -16 192 15 23 21 24 31 28 149 3 70 8 135 12 145 7 15 2 17 -37 17 -31 0 -47 -5 -51 -15 -5 -13 -10 -12 -38 5 -39 23 -92 25 -130 4z m130 -70 c13 -9 22 -26 22 -41 0 -24 -2 -25 -42 -19 -64 10 -82 31 -52 60 20 20 43 20 72 0z"/>
<path d="M1845 1201 c-40 -24 -60 -49 -74 -90 -30 -90 4 -187 81 -227 39 -20 117 -18 155 6 41 24 71 79 51 91 -26 17 -67 9 -93 -17 -20 -20 -32 -24 -53 -19 -40 9 -52 32 -52 97 0 49 4 63 25 83 13 14 33 25 43 25 20 0 52 -29 52 -48 0 -13 54 -15 82 -4 17 7 17 9 0 42 -37 74 -146 105 -217 61z"/>
<path d="M980 984 l0 -225 150 3 150 3 32 33 c44 44 47 106 6 149 l-27 28 30 17 c50 29 64 99 29 155 -33 55 -62 63 -225 63 l-145 0 0 -226z m268 130 c31 -21 26 -64 -8 -81 -14 -7 -55 -13 -92 -13 l-68 0 0 55 0 55 73 0 c50 0 80 -5 95 -16z m-24 -184 c20 -7 26 -17 26 -39 0 -40 -23 -51 -104 -51 l-66 0 0 50 0 50 59 0 c33 0 71 -4 85 -10z"/>
</g>
<g id="layer110" fill="#1c9795" stroke="none">
<path d="M1458 1204 c-15 -8 -32 -23 -38 -34 -13 -25 -13 -76 1 -102 13 -24 77 -53 137 -63 46 -7 62 -26 42 -50 -18 -22 -60 -18 -86 6 -18 17 -30 20 -58 15 -42 -8 -42 -10 -17 -52 25 -40 75 -58 152 -52 43 3 65 10 83 27 22 21 24 31 28 149 3 70 8 135 12 145 7 15 2 17 -37 17 -31 0 -47 -5 -51 -15 -5 -13 -10 -12 -38 5 -39 23 -92 25 -130 4z m130 -70 c14 -9 22 -26 22 -44 0 -28 0 -28 -42 -18 -66 14 -81 33 -52 62 20 20 43 20 72 0z"/>
<path d="M1845 1201 c-40 -24 -60 -49 -74 -90 -30 -90 4 -187 81 -227 36 -19 112 -18 149 1 26 14 69 67 69 87 0 3 -18 9 -40 13 -36 6 -43 4 -61 -19 -25 -31 -61 -34 -89 -6 -15 15 -20 33 -20 79 0 67 26 111 64 111 24 0 56 -28 56 -48 0 -13 40 -14 78 -4 22 7 22 7 5 42 -38 74 -147 105 -218 61z"/>
<path d="M980 984 l0 -225 150 3 150 3 32 33 c44 44 47 106 6 149 l-27 28 30 17 c51 30 64 99 29 156 -32 52 -69 62 -230 62 l-140 0 0 -226z m268 130 c12 -8 22 -26 22 -39 0 -39 -35 -55 -117 -55 l-73 0 0 55 0 55 73 0 c49 0 80 -5 95 -16z m-17 -184 c12 -7 19 -21 19 -40 0 -39 -23 -50 -104 -50 l-66 0 0 50 0 50 66 0 c36 0 74 -5 85 -10z"/>
<path d="M2130 985 l0 -225 45 0 45 0 0 113 1 112 48 -52 c46 -51 50 -53 99 -53 29 0 52 3 52 7 0 4 -23 31 -51 59 l-52 53 57 99 c31 55 56 103 56 106 0 3 -21 6 -47 6 l-48 0 -38 -71 c-37 -69 -39 -70 -58 -53 -14 13 -19 30 -19 71 l0 53 -45 0 -45 0 0 -225z"/>
</g>
<g id="layer111" fill="#72806f" stroke="none">
<path d="M2130 985 l0 -225 45 0 45 0 0 110 c0 61 3 110 8 110 4 -1 25 -23 47 -50 39 -48 42 -50 93 -50 28 0 52 3 52 7 0 4 -23 31 -51 59 l-52 53 57 99 c31 55 56 103 56 106 0 3 -20 6 -45 6 -48 0 -45 3 -99 -93 -27 -47 -28 -48 -47 -31 -14 13 -19 31 -19 71 l0 53 -45 0 -45 0 0 -225z"/>
</g>
<g id="layer112" fill="#bbad15" stroke="none">
<path d="M1459 1205 c-56 -30 -63 -129 -12 -162 14 -10 56 -24 92 -33 48 -12 67 -21 69 -34 8 -39 -58 -49 -94 -15 -18 17 -30 20 -58 15 -42 -8 -42 -10 -17 -52 25 -40 75 -58 152 -52 43 3 65 10 83 27 22 21 24 31 28 149 3 70 8 135 12 145 7 15 2 17 -37 17 -31 0 -47 -5 -51 -15 -5 -13 -10 -12 -38 5 -38 23 -92 25 -129 5z m129 -71 c14 -9 22 -26 22 -44 0 -28 0 -28 -42 -18 -66 14 -81 33 -52 62 20 20 43 20 72 0z"/>
<path d="M1840 1197 c-52 -34 -74 -80 -74 -152 0 -72 22 -118 74 -152 43 -30 121 -31 167 -3 28 17 70 76 61 85 -10 11 -88 16 -88 7 0 -19 -31 -42 -56 -42 -43 0 -64 33 -64 99 0 68 25 111 65 111 24 0 33 -7 59 -44 11 -17 19 -18 55 -10 l41 9 -17 35 c-40 78 -151 106 -223 57z"/>
<path d="M980 984 l0 -225 150 3 150 3 32 33 c44 44 47 106 6 149 l-27 28 30 17 c51 30 64 99 29 156 -32 52 -69 62 -230 62 l-140 0 0 -226z m268 130 c12 -8 22 -26 22 -39 0 -39 -35 -55 -117 -55 l-73 0 0 55 0 55 73 0 c49 0 80 -5 95 -16z m-16 -186 c26 -22 29 -47 8 -68 -16 -16 -34 -20 -90 -20 l-70 0 0 50 0 50 68 0 c40 0 75 -5 84 -12z"/>
<path d="M2130 985 l0 -225 45 0 44 0 3 115 3 115 45 -55 c44 -54 46 -55 98 -55 28 0 52 3 52 7 0 4 -23 31 -51 59 l-52 53 57 99 c31 55 56 103 56 106 0 3 -20 6 -45 6 -48 0 -45 3 -99 -93 -27 -47 -28 -48 -47 -31 -14 13 -19 31 -19 71 l0 53 -45 0 -45 0 0 -225z"/>
</g>
<g id="layer113" fill="#1cadb9" stroke="none">
<path d="M1459 1205 c-56 -30 -63 -129 -12 -162 14 -10 56 -24 92 -33 48 -12 67 -21 69 -34 8 -39 -58 -49 -94 -15 -18 17 -30 20 -58 15 -42 -8 -42 -10 -17 -52 25 -41 75 -58 154 -52 50 4 64 9 84 32 21 25 23 36 23 134 0 59 4 122 9 140 l10 32 -44 0 c-29 0 -45 -5 -49 -15 -5 -13 -10 -12 -38 5 -38 23 -92 25 -129 5z m131 -73 c15 -12 21 -26 18 -43 -3 -25 -4 -26 -47 -15 -55 14 -75 41 -47 62 26 19 49 18 76 -4z"/>
<path d="M1840 1197 c-52 -34 -74 -80 -74 -152 0 -72 22 -118 74 -152 43 -30 121 -31 167 -3 28 17 70 76 61 85 -2 2 -22 7 -45 11 -36 5 -42 4 -48 -15 -8 -26 -48 -37 -80 -23 -32 15 -49 76 -36 132 10 45 34 69 68 70 22 0 31 -7 57 -44 10 -15 20 -18 49 -12 41 8 44 14 22 57 -36 68 -147 92 -215 46z"/>
<path d="M980 984 l0 -225 149 3 c142 3 151 4 175 27 52 49 54 115 5 167 -19 21 -19 21 5 32 54 25 70 109 31 169 -28 43 -71 53 -225 53 l-140 0 0 -226z m268 130 c12 -8 22 -26 22 -39 0 -39 -35 -55 -117 -55 l-73 0 0 55 0 55 73 0 c49 0 80 -5 95 -16z m-16 -186 c26 -22 29 -47 8 -68 -16 -16 -34 -20 -90 -20 l-70 0 0 50 0 50 68 0 c40 0 75 -5 84 -12z"/>
<path d="M2130 985 l0 -225 45 0 45 0 0 118 c1 94 3 114 13 101 7 -8 28 -34 48 -58 36 -41 39 -42 90 -39 l52 3 -51 56 c-29 31 -52 59 -52 62 0 3 25 48 55 101 30 52 55 97 55 100 0 4 -20 6 -45 6 -48 0 -45 3 -99 -93 -27 -47 -28 -48 -47 -31 -14 13 -19 31 -19 71 l0 53 -45 0 -45 0 0 -225z"/>
</g>
<g id="layer114" fill="#a3ad52" stroke="none">
<path d="M1461 1206 c-75 -41 -64 -147 19 -180 22 -9 46 -16 53 -16 6 0 29 -5 49 -10 29 -8 36 -14 31 -28 -14 -38 -65 -43 -99 -11 -18 17 -30 20 -58 15 -20 -4 -36 -10 -36 -13 0 -3 9 -21 20 -39 26 -41 73 -58 153 -52 50 4 64 9 84 32 21 25 23 36 23 134 0 59 4 122 9 140 l10 32 -45 0 c-32 0 -44 -4 -44 -15 0 -19 -3 -19 -42 5 -38 23 -92 25 -127 6z m127 -73 c11 -10 23 -30 26 -45 6 -27 5 -27 -26 -21 -79 15 -109 43 -73 69 25 19 49 17 73 -3z"/>
<path d="M1842 1200 c-52 -32 -72 -74 -72 -155 0 -81 20 -123 72 -155 44 -26 122 -27 165 0 28 17 70 76 61 85 -2 2 -22 7 -45 11 -36 5 -42 4 -48 -15 -8 -26 -48 -37 -80 -23 -48 22 -54 153 -8 187 34 27 79 16 94 -23 8 -22 14 -24 45 -19 48 8 50 11 31 52 -34 71 -142 99 -215 55z"/>
<path d="M990 984 l0 -225 144 3 c136 3 146 4 170 27 52 49 54 115 5 167 -19 21 -19 21 5 32 54 25 70 109 31 169 -28 43 -71 53 -220 53 l-135 0 0 -226z m258 130 c12 -8 22 -26 22 -39 0 -39 -35 -55 -117 -55 l-73 0 0 55 0 55 73 0 c49 0 80 -5 95 -16z m-8 -194 c46 -46 7 -80 -92 -80 l-68 0 0 50 0 50 70 0 c57 0 74 -4 90 -20z"/>
</g>
<g id="layer115" fill="#63b7a9" stroke="none">
<path d="M1461 1206 c-75 -41 -64 -147 19 -180 22 -9 46 -16 53 -16 6 0 29 -5 49 -10 29 -8 36 -14 31 -28 -14 -38 -71 -44 -102 -11 -16 17 -27 20 -55 15 -20 -4 -36 -10 -36 -13 0 -21 46 -73 72 -82 70 -25 175 -5 197 37 6 12 11 67 11 124 0 57 4 118 9 136 l10 32 -45 0 c-32 0 -44 -4 -44 -15 0 -19 -3 -19 -42 5 -38 23 -92 25 -127 6z m127 -73 c11 -10 23 -30 26 -45 6 -27 5 -27 -26 -21 -76 14 -103 38 -78 68 17 20 53 19 78 -2z"/>
<path d="M1842 1200 c-52 -32 -72 -74 -72 -155 0 -81 20 -123 72 -155 68 -41 174 -17 211 48 11 18 18 35 15 37 -2 2 -22 7 -45 11 -36 5 -42 4 -48 -15 -8 -26 -48 -37 -80 -23 -48 22 -54 156 -9 189 34 25 81 13 95 -24 8 -23 13 -24 47 -18 20 4 39 9 42 11 12 12 -38 81 -70 96 -47 24 -117 23 -158 -2z"/>
<path d="M990 985 l0 -225 128 0 c149 0 186 12 215 72 15 31 17 44 7 72 -6 18 -20 42 -30 51 -20 18 -20 18 8 35 53 33 65 112 26 169 -29 41 -72 51 -219 51 l-135 0 0 -225z m258 129 c12 -8 22 -26 22 -39 0 -39 -35 -55 -117 -55 l-73 0 0 55 0 55 73 0 c49 0 80 -5 95 -16z m-8 -194 c46 -46 7 -80 -92 -80 l-68 0 0 50 0 50 70 0 c57 0 74 -4 90 -20z"/>
</g>
<g id="layer116" fill="#ddc245" stroke="none">
<path d="M1461 1206 c-47 -26 -63 -84 -36 -135 15 -31 43 -45 119 -61 67 -15 75 -20 65 -47 -11 -31 -70 -32 -97 -2 -16 16 -27 19 -56 14 -20 -4 -36 -9 -36 -12 0 -19 40 -65 66 -78 64 -30 179 -11 203 33 6 12 11 67 11 124 0 57 4 118 9 136 l10 32 -45 0 c-32 0 -44 -4 -44 -15 0 -19 -3 -19 -42 5 -38 23 -92 25 -127 6z m131 -73 c8 -10 18 -30 22 -45 6 -27 5 -27 -26 -21 -52 10 -78 21 -84 38 -15 39 58 62 88 28z"/>
<path d="M1850 1202 c-57 -28 -80 -73 -80 -157 0 -58 4 -79 23 -106 60 -91 208 -91 260 -1 11 18 18 35 15 37 -2 2 -22 7 -45 11 -36 5 -42 4 -48 -15 -8 -26 -48 -37 -80 -23 -48 22 -54 156 -9 189 34 25 81 13 95 -24 8 -23 13 -24 47 -18 20 4 39 9 42 11 2 3 -4 22 -15 42 -24 44 -74 72 -130 72 -22 0 -56 -8 -75 -18z"/>
<path d="M990 985 l0 -225 128 0 c149 0 186 12 215 72 15 31 17 44 7 72 -6 18 -20 42 -30 51 -20 18 -20 18 8 35 53 33 65 112 26 169 -29 41 -72 51 -219 51 l-135 0 0 -225z m264 129 c9 -8 16 -26 16 -39 0 -39 -35 -55 -117 -55 l-73 0 0 55 0 55 79 0 c59 0 84 -4 95 -16z m-14 -194 c24 -24 25 -38 3 -62 -13 -14 -31 -18 -90 -18 l-73 0 0 50 0 50 70 0 c57 0 74 -4 90 -20z"/>
<path d="M2130 985 l0 -225 45 0 45 0 0 118 1 117 20 -25 c77 -92 76 -91 131 -88 l51 3 -51 56 c-29 31 -52 59 -52 62 0 3 25 48 55 101 30 52 55 97 55 100 0 4 -20 6 -45 6 l-44 0 -37 -67 c-21 -38 -39 -70 -41 -72 -1 -2 -12 4 -23 14 -15 14 -20 31 -20 72 l0 53 -45 0 -45 0 0 -225z"/>
</g>
<g id="layer117" fill="#4ac2dd" stroke="none">
<path d="M1461 1206 c-47 -26 -63 -84 -36 -135 15 -31 43 -45 119 -61 67 -15 75 -20 65 -47 -11 -31 -70 -32 -97 -2 -16 16 -27 19 -56 14 -42 -8 -41 -8 -19 -46 33 -55 132 -76 208 -44 46 19 55 45 55 170 0 57 4 115 10 129 9 26 9 26 -35 26 -33 0 -45 -4 -45 -15 0 -19 -3 -19 -42 5 -38 23 -92 25 -127 6z m131 -73 c8 -10 18 -30 22 -46 6 -26 5 -27 -21 -21 -68 15 -93 26 -93 43 0 40 63 57 92 24z"/>
<path d="M1850 1202 c-57 -28 -80 -73 -80 -157 0 -58 4 -79 23 -106 61 -92 210 -91 259 1 l18 35 -42 9 c-31 7 -43 6 -46 -2 -13 -41 -61 -53 -99 -27 -46 33 -38 164 12 187 34 15 74 2 86 -28 8 -24 13 -26 47 -19 20 4 39 9 42 11 2 3 -4 22 -15 42 -24 44 -74 72 -130 72 -22 0 -56 -8 -75 -18z"/>
<path d="M990 985 l0 -225 125 0 c136 0 180 11 209 51 25 36 21 102 -9 137 l-24 29 26 14 c51 27 64 108 26 165 -28 43 -71 54 -217 54 l-136 0 0 -225z m264 129 c9 -8 16 -26 16 -39 0 -39 -35 -55 -117 -55 l-73 0 0 55 0 55 79 0 c59 0 84 -4 95 -16z m-14 -194 c24 -24 25 -38 3 -62 -13 -14 -31 -18 -90 -18 l-73 0 0 50 0 50 70 0 c57 0 74 -4 90 -20z"/>
<path d="M2130 985 l0 -225 45 0 45 0 0 118 1 117 20 -25 c77 -92 76 -91 129 -88 l49 3 -51 59 -52 59 20 36 c11 20 37 66 58 104 l38 67 -46 0 -45 0 -37 -67 c-21 -38 -39 -70 -41 -72 -1 -2 -12 4 -23 14 -15 14 -20 31 -20 72 l0 53 -45 0 -45 0 0 -225z"/>
</g>
<g id="layer118" fill="#97ee95" stroke="none">
<path d="M160 1001 c0 -11 1254 -931 1269 -931 6 0 11 2 11 6 0 33 -110 120 -632 504 -473 347 -592 430 -617 430 -17 0 -31 -4 -31 -9z"/>
<path d="M1410 562 c0 -5 8 -16 18 -25 17 -15 75 -17 635 -17 339 0 617 4 617 8 0 5 -8 16 -18 25 -17 15 -75 17 -635 17 -339 0 -617 -4 -617 -8z"/>
</g>
<g id="layer119" fill="#b0cda8" stroke="none">
<path d="M1448 1191 c-27 -24 -33 -36 -33 -71 0 -57 40 -92 121 -109 78 -15 89 -23 75 -50 -16 -29 -73 -29 -100 0 -17 18 -25 20 -56 13 l-36 -9 23 -35 c30 -44 61 -60 121 -60 63 0 115 22 127 55 6 15 10 73 10 130 0 57 4 115 10 129 9 26 9 26 -35 26 -33 0 -45 -4 -45 -15 0 -19 -3 -19 -42 5 -49 30 -101 26 -140 -9z m144 -55 c10 -7 21 -28 24 -45 7 -31 6 -32 -22 -26 -70 16 -94 27 -94 44 0 38 56 55 92 27z"/>
<path d="M1854 1206 c-53 -23 -78 -71 -82 -151 -5 -114 42 -175 140 -182 66 -5 114 18 140 67 18 35 18 35 -4 42 -44 12 -66 9 -71 -12 -7 -26 -54 -37 -86 -19 -53 30 -51 166 4 191 33 15 74 2 87 -28 11 -23 16 -25 47 -19 20 4 38 9 41 11 2 3 -4 22 -15 42 -35 64 -126 90 -201 58z"/>
<path d="M990 985 l0 -225 125 0 c136 0 180 11 209 51 25 36 21 102 -9 137 l-24 29 26 14 c51 27 64 108 26 165 -28 43 -71 54 -217 54 l-136 0 0 -225z m261 135 c12 -7 19 -21 19 -40 0 -44 -31 -60 -117 -60 l-73 0 0 55 0 55 76 0 c41 0 84 -5 95 -10z m-13 -196 c26 -18 28 -46 6 -68 -11 -12 -36 -16 -90 -16 l-74 0 0 50 0 50 68 0 c45 0 75 -5 90 -16z"/>
</g>
<g id="layer120" fill="#72d5f5" stroke="none">
<path d="M1475 1211 c-37 -16 -60 -51 -60 -93 0 -55 41 -91 121 -107 78 -15 89 -23 75 -50 -15 -28 -73 -29 -99 -1 -14 15 -26 18 -55 13 -36 -5 -36 -6 -23 -32 24 -46 51 -62 113 -68 72 -7 129 14 143 52 6 15 10 73 10 130 0 57 4 115 10 129 9 26 9 26 -35 26 -33 0 -45 -4 -45 -15 0 -19 2 -19 -45 5 -41 21 -76 24 -110 11z m117 -75 c10 -7 21 -28 24 -46 7 -32 7 -32 -27 -25 -58 11 -89 27 -89 44 0 39 56 55 92 27z"/>
<path d="M1854 1206 c-53 -24 -78 -71 -82 -151 -5 -114 39 -172 139 -181 67 -6 114 16 140 65 10 19 18 36 16 37 -1 0 -21 4 -43 8 -36 5 -42 3 -47 -14 -7 -26 -54 -37 -86 -19 -53 30 -51 166 4 191 33 15 74 2 87 -27 10 -22 16 -25 47 -19 20 4 38 8 40 10 10 9 -30 74 -53 89 -34 23 -124 29 -162 11z"/>
<path d="M990 985 l0 -225 118 0 c136 0 183 11 212 47 29 37 27 103 -5 141 l-24 29 26 14 c58 31 65 125 12 178 -35 36 -63 41 -215 41 l-124 0 0 -225z m261 135 c12 -7 19 -21 19 -40 0 -44 -31 -60 -117 -60 l-73 0 0 55 0 55 76 0 c41 0 84 -5 95 -10z m-13 -196 c26 -18 28 -46 6 -68 -11 -12 -36 -16 -90 -16 l-74 0 0 50 0 50 68 0 c45 0 75 -5 90 -16z"/>
<path d="M2130 985 l0 -225 45 0 45 0 0 118 0 117 53 -58 c51 -57 53 -59 99 -55 l47 3 -51 59 -52 59 20 36 c11 20 37 66 58 104 l38 67 -45 0 -45 0 -38 -67 c-20 -38 -39 -70 -40 -72 -2 -2 -13 4 -24 14 -15 14 -20 31 -20 72 l0 53 -45 0 -45 0 0 -225z"/>
</g>
<g id="layer121" fill="#f8d66f" stroke="none">
<path d="M1480 1213 c-40 -16 -60 -46 -60 -94 0 -40 5 -51 29 -72 17 -14 54 -29 87 -36 77 -15 92 -25 78 -48 -17 -27 -78 -29 -101 -3 -15 15 -27 19 -51 14 -36 -7 -39 -19 -16 -53 49 -69 217 -66 244 4 6 15 10 73 10 130 0 57 4 115 10 129 9 25 8 26 -31 26 -32 0 -42 -4 -46 -20 -5 -19 -5 -19 -33 1 -28 21 -93 33 -120 22z m120 -83 c11 -11 20 -32 20 -46 0 -24 -3 -25 -32 -19 -57 11 -88 27 -88 44 0 42 65 56 100 21z"/>
<path d="M1850 1202 c-70 -38 -100 -151 -64 -242 21 -53 61 -80 127 -86 65 -6 113 16 139 66 l18 35 -37 6 c-32 6 -42 3 -60 -17 -25 -28 -59 -31 -90 -9 -44 31 -38 161 7 185 36 19 70 12 88 -20 15 -27 21 -29 52 -24 19 4 37 8 39 10 10 9 -30 74 -53 89 -39 26 -125 30 -166 7z"/>
<path d="M990 985 l0 -225 118 0 c136 0 183 11 212 47 29 37 27 103 -5 141 l-24 29 26 14 c58 31 65 125 12 178 -35 36 -63 41 -215 41 l-124 0 0 -225z m271 124 c20 -20 19 -51 -3 -74 -5 -5 -47 -12 -93 -14 l-85 -3 0 56 0 56 80 0 c67 0 83 -3 101 -21z m-23 -185 c26 -18 28 -46 6 -68 -11 -12 -36 -16 -90 -16 l-74 0 0 50 0 50 68 0 c45 0 75 -5 90 -16z"/>
<path d="M2130 985 l0 -225 45 0 45 0 0 118 1 117 52 -58 c51 -57 53 -58 99 -55 l47 3 -51 59 -52 59 20 36 c11 20 37 66 58 104 l38 67 -45 0 c-44 0 -45 -1 -75 -57 -50 -92 -48 -90 -71 -69 -16 15 -21 31 -21 73 l0 53 -45 0 -45 0 0 -225z"/>
</g>
<g id="layer122" fill="#dfddab" stroke="none">
<path d="M1480 1213 c-40 -16 -60 -46 -60 -94 0 -40 5 -51 29 -72 17 -14 54 -29 87 -36 77 -15 92 -25 78 -48 -17 -27 -78 -29 -103 -4 -15 15 -28 19 -51 15 -34 -7 -37 -19 -14 -53 32 -46 123 -64 193 -40 49 17 61 52 61 179 0 61 5 120 10 131 10 17 7 19 -31 19 -32 0 -42 -4 -46 -20 -5 -20 -6 -20 -35 1 -30 22 -91 33 -118 22z m120 -83 c11 -11 20 -31 20 -45 0 -24 -2 -26 -37 -19 -61 11 -83 22 -83 42 0 43 64 58 100 22z"/>
<path d="M1850 1202 c-95 -51 -107 -240 -19 -303 71 -51 183 -30 219 41 l19 38 -37 4 c-29 4 -41 0 -59 -19 -27 -28 -63 -30 -94 -4 -21 17 -24 28 -24 86 0 58 3 69 24 86 36 30 79 25 99 -11 15 -27 21 -29 52 -24 19 4 37 8 38 10 9 7 -33 75 -55 89 -40 26 -121 30 -163 7z"/>
<path d="M990 986 l0 -226 118 0 c64 0 134 5 154 10 74 21 103 114 55 174 l-23 29 34 32 c29 26 35 38 35 72 0 44 -24 92 -57 114 -15 10 -63 15 -168 17 l-148 4 0 -226z m271 123 c20 -20 19 -51 -3 -74 -5 -5 -47 -12 -93 -14 l-85 -3 0 56 0 56 80 0 c67 0 83 -3 101 -21z m-23 -185 c26 -18 28 -46 6 -68 -11 -12 -36 -16 -90 -16 l-74 0 0 50 0 50 68 0 c45 0 75 -5 90 -16z"/>
<path d="M2130 985 l0 -225 45 0 45 0 0 118 1 117 52 -58 c50 -55 54 -57 100 -57 l49 0 -55 63 -54 62 26 45 c15 25 42 71 60 103 l32 57 -44 0 c-44 0 -45 -1 -75 -57 -50 -92 -48 -90 -71 -69 -16 15 -21 31 -21 73 l0 53 -45 0 -45 0 0 -225z"/>
</g>
<g id="layer123" fill="#ffeb95" stroke="none">
<path d="M1480 1213 c-40 -16 -60 -46 -60 -94 0 -40 5 -51 29 -72 17 -14 54 -29 87 -36 77 -15 92 -25 78 -48 -17 -28 -88 -30 -107 -3 -11 16 -21 19 -45 14 -36 -7 -39 -19 -16 -53 32 -45 109 -62 186 -40 56 15 68 46 68 179 0 61 5 120 10 131 10 17 7 19 -31 19 -32 0 -42 -4 -46 -20 -5 -20 -6 -20 -35 1 -30 22 -91 33 -118 22z m120 -83 c11 -11 20 -32 20 -46 0 -25 -2 -26 -36 -19 -59 11 -84 23 -84 43 0 43 64 58 100 22z"/>
<path d="M1850 1202 c-95 -50 -107 -240 -20 -302 71 -50 184 -30 220 40 l19 38 -37 4 c-29 4 -41 0 -59 -19 -28 -29 -73 -30 -99 -2 -14 16 -19 36 -19 84 0 76 20 105 72 105 27 0 37 -6 51 -29 14 -26 20 -28 52 -24 19 3 37 7 38 9 2 1 -4 19 -14 39 -31 67 -132 94 -204 57z"/>
<path d="M990 986 l0 -226 118 0 c64 0 134 5 154 10 79 22 105 121 48 179 -27 27 -28 30 -12 35 60 19 83 102 47 164 -29 48 -56 56 -212 60 l-143 4 0 -226z m271 123 c20 -20 19 -51 -3 -74 -5 -5 -47 -12 -93 -14 l-85 -3 0 56 0 56 80 0 c67 0 83 -3 101 -21z m-23 -185 c26 -18 28 -46 6 -68 -11 -12 -36 -16 -90 -16 l-74 0 0 50 0 50 68 0 c45 0 75 -5 90 -16z"/>
<path d="M2130 985 l0 -225 45 0 45 0 0 118 1 117 52 -58 c50 -55 54 -57 100 -57 l49 0 -55 63 -54 62 26 45 c15 25 42 71 60 103 l32 57 -43 0 c-42 0 -46 -2 -68 -42 -12 -24 -32 -58 -42 -76 l-20 -32 -19 24 c-13 17 -19 40 -19 75 l0 51 -45 0 -45 0 0 -225z"/>
</g>
<g id="layer124" fill="#98ebff" stroke="none">
<path d="M1480 1213 c-40 -16 -60 -46 -60 -94 0 -40 5 -51 29 -72 17 -14 54 -29 87 -36 77 -15 92 -25 78 -48 -17 -28 -88 -30 -107 -3 -11 16 -21 19 -45 14 -40 -8 -41 -27 -4 -64 48 -47 164 -53 210 -10 26 24 31 53 34 198 l3 112 -33 0 c-25 0 -35 -5 -39 -20 -7 -25 -11 -25 -39 1 -22 21 -86 34 -114 22z m120 -83 c11 -11 20 -32 20 -46 0 -25 -2 -26 -36 -19 -59 11 -84 23 -84 43 0 43 64 58 100 22z"/>
<path d="M1850 1202 c-95 -51 -107 -240 -20 -302 62 -44 158 -34 205 21 33 41 32 56 -7 62 -26 3 -38 -1 -55 -19 -31 -33 -75 -32 -103 4 -18 22 -21 37 -18 84 5 70 27 98 75 98 27 0 37 -6 51 -29 14 -26 20 -28 52 -24 19 3 37 7 39 9 7 6 -35 68 -61 87 -38 28 -114 33 -158 9z"/>
<path d="M990 984 l0 -226 138 4 c149 3 177 12 200 64 23 49 4 123 -35 138 -14 6 -12 10 14 26 40 24 53 48 53 99 0 50 -37 96 -88 111 -20 5 -92 10 -159 10 l-123 0 0 -226z m271 125 c20 -20 19 -51 -3 -74 -5 -5 -49 -12 -98 -13 l-90 -4 0 56 0 56 85 0 c72 0 88 -3 106 -21z m-23 -185 c26 -18 28 -46 6 -68 -11 -12 -36 -16 -95 -16 l-79 0 0 50 0 50 73 0 c49 0 80 -5 95 -16z"/>
<path d="M2130 985 l0 -225 45 0 45 0 0 118 1 117 52 -58 c50 -55 54 -57 100 -57 l49 0 -56 62 -56 61 20 34 c11 18 28 48 38 66 11 17 29 49 41 70 l23 37 -44 0 c-42 0 -46 -2 -68 -42 -59 -109 -60 -111 -81 -92 -15 13 -19 31 -19 76 l0 58 -45 0 -45 0 0 -225z"/>
</g>
<g id="layer125" fill="#b4eff3" stroke="none">
<path d="M1474 1211 c-55 -24 -72 -109 -31 -156 16 -18 43 -30 96 -43 40 -9 76 -22 78 -30 16 -40 -83 -60 -110 -22 -11 16 -21 19 -45 14 -40 -8 -41 -27 -4 -64 48 -47 164 -53 210 -10 26 24 31 53 34 198 l3 112 -33 0 c-25 0 -35 -5 -39 -20 -7 -25 -11 -25 -39 1 -25 23 -88 34 -120 20z m124 -77 c14 -10 22 -25 22 -46 0 -29 -1 -30 -36 -23 -59 11 -84 23 -84 43 0 41 55 56 98 26z"/>
<path d="M1849 1200 c-74 -39 -101 -158 -58 -248 46 -94 183 -109 247 -27 30 38 28 52 -10 58 -27 4 -37 0 -51 -19 -27 -35 -78 -33 -107 4 -18 22 -21 37 -18 84 5 69 27 98 73 98 31 0 65 -25 65 -48 0 -9 67 -6 79 4 7 6 -35 68 -61 87 -38 29 -114 32 -159 7z"/>
<path d="M990 984 l0 -226 138 4 c149 3 177 12 200 64 23 49 4 123 -35 138 -14 6 -12 10 14 26 40 24 53 48 53 99 0 50 -37 96 -88 111 -20 5 -92 10 -159 10 l-123 0 0 -226z m270 126 c11 -11 20 -27 20 -35 0 -8 -9 -24 -20 -35 -17 -17 -33 -20 -105 -20 l-85 0 0 55 0 55 85 0 c72 0 88 -3 105 -20z m-16 -186 c22 -21 20 -61 -3 -74 -11 -5 -54 -10 -95 -10 l-76 0 0 50 0 50 79 0 c59 0 84 -4 95 -16z"/>
<path d="M2140 985 l0 -225 40 0 40 0 0 118 1 117 52 -57 c50 -55 55 -58 101 -58 l48 0 -56 62 -56 61 20 34 c11 18 29 49 40 68 11 19 29 51 41 70 l21 35 -44 0 c-43 0 -44 -1 -77 -62 -49 -90 -50 -92 -72 -72 -14 13 -19 31 -19 76 l0 58 -40 0 -40 0 0 -225z"/>
</g>
<g id="layer126" fill="#ddebdd" stroke="none">
<path d="M1468 1205 c-34 -19 -48 -44 -48 -85 0 -63 31 -89 133 -110 60 -12 78 -30 57 -55 -18 -22 -86 -19 -102 4 -10 13 -21 17 -45 14 -39 -6 -39 -8 -13 -50 23 -38 83 -58 147 -49 89 12 101 37 105 219 l3 117 -32 0 c-18 0 -33 -3 -33 -7 0 -5 -5 -15 -10 -23 -8 -12 -13 -11 -33 9 -32 29 -93 37 -129 16z m130 -71 c14 -10 22 -25 22 -46 0 -29 -1 -30 -36 -23 -59 11 -84 23 -84 43 0 41 55 56 98 26z"/>
<path d="M1865 1206 c-140 -64 -118 -304 31 -332 50 -9 108 10 138 47 34 40 33 56 -6 61 -25 4 -36 0 -51 -18 -27 -35 -79 -33 -107 4 -18 22 -21 37 -18 84 5 69 27 98 73 98 31 0 65 -25 65 -48 0 -9 67 -6 79 4 7 6 -35 68 -60 87 -34 25 -105 31 -144 13z"/>
<path d="M990 984 l0 -226 138 4 c149 3 177 12 200 64 23 49 4 123 -35 138 -14 6 -12 10 14 26 40 24 53 48 53 99 0 50 -37 96 -88 111 -20 5 -92 10 -159 10 l-123 0 0 -226z m272 129 c10 -9 18 -26 18 -39 0 -39 -35 -54 -127 -54 l-83 0 0 55 0 55 87 0 c66 0 91 -4 105 -17z m-21 -183 c12 -7 19 -21 19 -40 0 -40 -23 -50 -114 -50 l-76 0 0 50 0 50 76 0 c41 0 84 -5 95 -10z"/>
</g>
<g id="layer127" fill="#fffdb9" stroke="none">
<path d="M1473 1206 c-37 -17 -53 -43 -53 -86 0 -63 31 -89 133 -110 60 -12 78 -30 57 -55 -18 -22 -87 -20 -101 3 -8 13 -20 17 -45 14 -40 -5 -40 -7 -14 -49 13 -23 31 -35 61 -43 53 -15 131 -4 158 21 25 23 30 52 33 197 l3 112 -32 0 c-18 0 -33 -3 -33 -7 0 -5 -5 -15 -10 -23 -8 -12 -12 -11 -32 7 -31 28 -85 37 -125 19z m125 -72 c14 -10 22 -25 22 -46 0 -29 -1 -30 -36 -23 -59 11 -84 23 -84 43 0 41 55 56 98 26z"/>
<path d="M1875 1210 c-111 -34 -141 -219 -49 -299 60 -53 159 -49 208 10 35 41 33 57 -6 61 -25 2 -38 -3 -51 -19 -27 -34 -79 -31 -107 5 -18 22 -21 37 -18 84 5 69 27 98 73 98 30 0 65 -25 65 -46 0 -5 18 -8 40 -6 22 2 40 7 40 11 0 15 -41 71 -62 85 -30 20 -95 27 -133 16z"/>
<path d="M990 984 l0 -227 138 5 c148 5 178 14 200 64 23 49 4 123 -35 138 -14 6 -12 10 14 26 40 24 53 48 53 99 0 30 -7 49 -28 72 -34 38 -79 48 -234 48 l-108 1 0 -226z m272 129 c10 -9 18 -26 18 -39 0 -39 -35 -54 -127 -54 l-83 0 0 55 0 55 87 0 c66 0 91 -4 105 -17z m-21 -183 c12 -7 19 -21 19 -40 0 -40 -23 -50 -114 -50 l-76 0 0 50 0 50 76 0 c41 0 84 -5 95 -10z"/>
<path d="M2140 985 l0 -225 40 0 40 0 0 115 c0 63 3 115 8 115 4 -1 27 -26 52 -55 42 -53 46 -55 93 -55 l49 0 -56 62 -56 61 20 34 c11 18 29 49 40 68 11 19 29 51 41 70 l21 35 -44 0 -43 0 -40 -75 c-22 -41 -43 -75 -46 -75 -22 0 -39 42 -39 93 l0 57 -40 0 -40 0 0 -225z"/>
</g>
<g id="layer128" fill="#ddfcff" stroke="none">
<path d="M1473 1206 c-37 -17 -53 -43 -53 -86 0 -63 31 -89 133 -110 60 -12 78 -30 57 -55 -18 -22 -87 -20 -101 3 -8 13 -20 17 -45 14 -40 -5 -40 -7 -14 -49 35 -58 159 -69 217 -19 26 23 27 27 28 142 1 66 5 129 9 142 7 20 4 22 -28 22 -20 0 -36 -3 -36 -7 0 -5 -4 -14 -9 -22 -7 -11 -14 -9 -37 8 -39 28 -82 34 -121 17z m125 -72 c14 -10 22 -25 22 -46 0 -30 -1 -30 -37 -23 -46 8 -85 26 -90 41 -6 19 26 44 55 44 15 0 38 -7 50 -16z"/>
<path d="M1875 1210 c-111 -34 -141 -219 -49 -299 60 -53 159 -49 208 10 35 41 33 57 -6 61 -25 2 -38 -3 -51 -19 -13 -16 -29 -23 -52 -23 -48 0 -75 37 -75 105 0 67 27 105 74 105 30 0 57 -18 67 -45 2 -6 21 -8 42 -5 l37 5 -17 34 c-10 19 -29 43 -43 53 -31 22 -95 30 -135 18z"/>
<path d="M990 985 l0 -225 108 0 c136 1 180 11 215 50 37 42 37 88 -3 133 l-29 34 24 11 c40 18 58 56 52 108 -10 91 -59 112 -259 113 l-108 1 0 -225z m272 128 c10 -9 18 -26 18 -39 0 -39 -35 -54 -127 -54 l-83 0 0 55 0 55 87 0 c66 0 91 -4 105 -17z m-21 -183 c12 -7 19 -21 19 -40 0 -40 -23 -50 -114 -50 l-76 0 0 50 0 50 76 0 c41 0 84 -5 95 -10z"/>
<path d="M2140 985 l0 -225 35 0 35 0 0 115 c0 86 3 115 13 115 6 -1 32 -26 57 -55 43 -53 46 -55 94 -55 l49 0 -57 60 c-46 48 -55 63 -47 77 5 10 32 57 60 106 l50 87 -42 0 -42 0 -40 -75 c-22 -41 -42 -75 -46 -75 -3 0 -15 10 -27 23 -17 18 -22 36 -22 75 l0 52 -35 0 -35 0 0 -225z"/>
</g>
<g id="layer129" fill="#fffddd" stroke="none">
<path d="M1474 1206 c-38 -17 -59 -63 -50 -111 9 -44 32 -60 123 -81 70 -17 74 -19 71 -43 -3 -23 -8 -26 -50 -29 -37 -2 -50 1 -59 15 -8 14 -20 18 -45 15 -39 -5 -38 -3 -22 -36 22 -51 103 -76 175 -57 69 19 77 36 78 169 1 64 5 127 9 140 7 20 4 22 -28 22 -20 0 -36 -3 -36 -7 0 -5 -4 -14 -9 -22 -7 -11 -14 -9 -37 8 -38 28 -82 34 -120 17z m128 -73 c10 -9 18 -29 18 -46 0 -28 -1 -29 -37 -22 -46 8 -85 26 -90 41 -12 37 74 59 109 27z"/>
<path d="M1876 1210 c-64 -20 -99 -78 -99 -165 0 -66 18 -112 58 -143 56 -44 154 -35 199 19 35 41 33 56 -9 61 -19 2 -35 1 -35 -3 0 -18 -34 -39 -65 -39 -48 0 -75 37 -75 105 0 68 27 105 75 105 32 0 59 -16 67 -41 2 -6 20 -9 41 -7 l37 3 -17 34 c-10 19 -29 43 -43 53 -30 21 -95 30 -134 18z"/>
<path d="M990 985 l0 -225 108 0 c136 1 180 11 215 50 37 42 37 88 -3 133 l-29 34 24 11 c40 18 58 56 52 108 -10 91 -59 112 -259 113 l-108 1 0 -225z m272 128 c22 -20 23 -51 1 -75 -13 -15 -32 -18 -105 -18 l-88 0 0 55 0 55 87 0 c66 0 91 -4 105 -17z m-5 -203 c10 -20 10 -29 -1 -45 -11 -17 -26 -20 -100 -23 l-86 -3 0 51 0 51 87 -3 c82 -3 88 -5 100 -28z"/>
<path d="M2140 985 l0 -225 35 0 35 0 0 114 c0 63 4 117 8 120 5 3 31 -22 58 -54 48 -58 50 -60 98 -60 l49 0 -57 60 c-46 48 -55 63 -47 77 5 10 32 58 60 106 l51 88 -42 -3 c-40 -3 -44 -6 -79 -68 -21 -36 -40 -69 -42 -75 -2 -5 -16 1 -31 14 -22 21 -26 33 -26 78 l0 53 -35 0 -35 0 0 -225z"/>
</g>
<g id="layer130" fill="#ffffff" stroke="none">
<path d="M1474 1206 c-38 -17 -59 -63 -50 -111 9 -44 32 -60 123 -81 70 -17 74 -19 71 -43 -3 -23 -8 -26 -49 -29 -32 -2 -50 2 -59 13 -11 14 -80 22 -80 10 0 -19 32 -63 55 -75 41 -22 140 -18 173 7 26 20 27 24 33 149 3 71 9 137 13 147 7 14 3 17 -28 17 -20 0 -36 -3 -36 -7 0 -5 -4 -14 -9 -22 -7 -11 -14 -9 -37 8 -38 28 -82 34 -120 17z m128 -73 c10 -9 18 -29 18 -45 0 -29 -1 -30 -42 -23 -40 6 -88 29 -88 41 0 3 5 14 10 25 14 24 76 26 102 2z"/>
<path d="M1876 1210 c-64 -20 -99 -78 -99 -165 0 -127 88 -199 198 -163 35 12 85 64 85 89 0 18 -66 9 -83 -11 -11 -13 -29 -20 -52 -20 -53 0 -75 28 -75 96 0 84 20 114 77 114 30 0 57 -17 65 -41 2 -6 20 -9 41 -7 l37 3 -17 34 c-10 19 -29 42 -43 52 -31 22 -95 31 -134 19z"/>
<path d="M990 985 l0 -225 103 0 c132 1 183 11 216 44 37 38 37 105 -1 142 l-26 27 31 21 c55 37 61 116 14 172 -28 32 -81 42 -234 43 l-103 1 0 -225z m272 128 c22 -20 23 -51 1 -75 -13 -15 -32 -18 -105 -18 l-88 0 0 55 0 55 87 0 c66 0 91 -4 105 -17z m-5 -203 c10 -20 10 -29 -1 -45 -11 -17 -26 -20 -100 -23 l-86 -3 0 51 0 51 87 -3 c82 -3 88 -5 100 -28z"/>
<path d="M2140 985 l0 -225 35 0 35 0 0 120 c0 66 4 120 8 120 5 0 30 -27 58 -60 46 -56 52 -60 92 -60 23 0 42 3 42 6 0 3 -23 30 -51 59 l-51 54 56 100 c31 54 56 102 56 106 0 3 -17 5 -37 3 -34 -3 -40 -8 -74 -68 -21 -36 -40 -69 -42 -75 -2 -5 -16 1 -31 14 -22 21 -26 33 -26 78 l0 53 -35 0 -35 0 0 -225z"/>
</g>


</svg>