<?xml version="1.0" standalone="yes"?>
<svg xmlns="http://www.w3.org/2000/svg" width="315" height="219">
<path style="fill:#ffffff; stroke:none;" d="M0 0L0 219L315 219L315 0L0 0z"/>
<path style="fill:#97ee95; stroke:none;" d="M16 101C27.9484 100.867 38.8008 89.2434 48 82.3742C70.5241 65.555 93.2094 48.8813 116 32.4244C124.908 25.9922 141.386 18.3589 144 7C133.54 9.47984 123.646 20.098 115 26.2901C92.1687 42.6413 69.4792 59.2946 47 76.1265C40.0345 81.3421 32.9717 86.4195 26 91.6258C22.2016 94.4623 18.188 96.7173 16 101z"/>
<path style="fill:#000000; stroke:none;" d="M144 8C136.765 21.8253 140 40.6706 140 56C148.882 49.233 145 30.2242 145 20C145 16.0172 145.552 11.6987 144 8z"/>
<path style="fill:#1c8016; stroke:none;" d="M139 15L23 100C26.5509 104.299 31.5389 107.295 36 110.626C44.9337 117.297 54.0663 123.703 63 130.374C78.5734 142.003 94.355 153.353 110 164.884C119.594 171.956 129.218 180.877 140 186L140 157C140 153.694 139.019 148.188 141.603 145.603C143.859 143.348 148.114 144.001 151 144L173 144L264 144L264 57L173 57L151 57C148.114 56.9987 143.859 57.6519 141.603 55.3966C139.019 52.8119 140 47.3059 140 44C140 35.4661 142.306 22.879 139 15z"/>
<path style="fill:#97ee95; stroke:none;" d="M141 57L236 57C244.55 57 263.585 60.7533 268 52L173 52C164.45 52 145.415 48.2467 141 57z"/>
<path style="fill:#0a4207; stroke:none;" d="M268 53C261.87 60.2487 264 70.9874 264 80L264 144L172 144L149 144C146.58 144.005 142.745 143.436 141.028 145.603C138.954 148.221 140 153.878 140 157L140 186C110.695 166.065 82.5319 144.146 54 123.116C43.0232 115.025 30.22 101.049 16 101C23.3727 110.056 35.6561 116.396 45 123.374C67.2092 139.96 89.7907 156.042 112 172.626C119.6 178.301 127.258 183.941 135 189.421C136.958 190.806 140.747 194.389 143.397 192.839C146.133 191.238 145 184.613 145 182L145 149L235 149L258 149C260.693 149 265.125 149.772 267.397 147.972C269.136 146.594 268.958 143.981 268.995 141.999C269.096 136.67 269 131.33 269 126L269 76C269 69.049 270.701 59.4362 268 53z"/>
<path style="fill:#1cadb9; stroke:none;" d="M98 76L98 121C99.6611 117.041 99 112.26 99 108L99 88C99 84.0172 99.552 79.6987 98 76z"/>
<path style="fill:#ffffff; stroke:none;" d="M99 76L99 121C108.271 121 120.189 122.714 128.996 119.258C140.655 114.685 135.794 101.999 128 97C134.681 93.1359 136.485 82.769 128.895 78.4529C120.749 73.8206 108 76 99 76z"/>
<path style="fill:#ddebdd; stroke:none;" d="M122 76C123.248 76.6848 123.548 76.7488 125 77C123.752 76.3152 123.452 76.2512 122 76z"/>
<path style="fill:#98ad6f; stroke:none;" d="M125 76L126 77L125 76z"/>
<path style="fill:#1c8045; stroke:none;" d="M212 76L212 121C213.661 117.041 213 112.26 213 108L213 88C213 84.0172 213.552 79.6987 212 76z"/>
<path style="fill:#98ebff; stroke:none;" d="M213 76L213 121C214.552 117.301 214 112.983 214 109L214 89C214 84.7397 214.661 79.9586 213 76z"/>
<path style="fill:#ffffff; stroke:none;" d="M214 76L214 121L221 121C221.001 114.904 221.721 111.213 225 106C228.224 109.923 230.693 118.23 235.379 120.397C237.598 121.423 240.623 120.998 243 121C240.585 115.828 237.486 111 234.725 106.004C233.677 104.109 232.029 101.855 232.736 99.5756C234.074 95.264 239.41 91.6774 242 88C238.829 88.0004 234.984 87.4739 232.09 89.0278C227.849 91.3042 224.99 96.1816 221 99L221 76L214 76z"/>
<path style="fill:#ffffb9; stroke:none;" d="M221 76L221 99C223.284 93.5574 223.284 81.4427 221 76z"/>
<path style="fill:#728015; stroke:none;" d="M222 76L222 98C224.219 92.7127 224.219 81.2873 222 76z"/>
<path style="fill:#ffebb9; stroke:none;" d="M127 77L128 78L127 77z"/>
<path style="fill:#98ad45; stroke:none;" d="M128 77L129 78L128 77z"/>
<path style="fill:#ffeb95; stroke:none;" d="M129 78L130 79L129 78z"/>
<path style="fill:#729715; stroke:none;" d="M131 79L132 80L131 79z"/>
<path style="fill:#728015; stroke:none;" d="M132 80L133 81L132 80z"/>
<path style="fill:#ffd66f; stroke:none;" d="M132 81L133 82L132 81z"/>
<path style="fill:#bbad15; stroke:none;" d="M133 82L134 83L133 82z"/>
<path style="fill:#ffeb95; stroke:none;" d="M133 83L134 84L133 83M107 84L107 94C108.346 90.793 108.346 87.207 107 84z"/>
<path style="fill:#4a8015; stroke:none;" d="M108 84L108 94C109.346 90.793 109.346 87.207 108 84z"/>
<path style="fill:#1c8016; stroke:none;" d="M109 84L109 94C112.938 94 118.11 94.8177 121.772 93.1065C124.911 91.6394 125.758 87.2451 122.681 85.179C119.23 82.8619 112.965 84 109 84z"/>
<path style="fill:#72c2b9; stroke:none;" d="M122 84L123 85L122 84z"/>
<path style="fill:#bbad15; stroke:none;" d="M134.333 84.6667C134.278 84.7222 134.222 85.7778 134.667 85.3333C134.722 85.2778 134.778 84.2222 134.333 84.6667z"/>
<path style="fill:#4ac2dd; stroke:none;" d="M124 85L125 86L124 85z"/>
<path style="fill:#98ebff; stroke:none;" d="M125 86L126 87L125 86z"/>
<path style="fill:#ddc245; stroke:none;" d="M134 86L134 89C134.696 87.4463 134.696 87.5537 134 86z"/>
<path style="fill:#1c9795; stroke:none;" d="M125 87L125 90C125.696 88.4463 125.696 88.5537 125 87z"/>
<path style="fill:#4a976f; stroke:none;" d="M150 87L151 88L150 87z"/>
<path style="fill:#bbebdd; stroke:none;" d="M151.667 87.3333C151.222 87.7778 152.278 87.7222 152.333 87.6667C152.778 87.2222 151.722 87.2778 151.667 87.3333z"/>
<path style="fill:#ffffff; stroke:none;" d="M143 97L150 98C151.651 96.0179 153.151 94.2777 155.999 94.2948C158.007 94.3068 161.551 95.9648 160.079 98.5054C157.293 103.313 147.39 100.911 143.603 106.133C139.134 112.298 143.718 121.179 151 121.768C155.592 122.139 159.28 119.237 163 117C164.343 121.046 167.065 120.953 171 121C170.167 114.551 169.001 108.548 169 102C169 98.5473 169.648 94.1512 167.397 91.2284C160.874 82.7629 144.957 87.3278 143 97z"/>
<path style="fill:#ddebdd; stroke:none;" d="M159 87C160.248 87.6848 160.548 87.7488 162 88C160.752 87.3152 160.452 87.2512 159 87z"/>
<path style="fill:#98ad6f; stroke:none;" d="M162 87L163 88L162 87z"/>
<path style="fill:#4aad95; stroke:none;" d="M187 87L188 88L187 87z"/>
<path style="fill:#98d6b9; stroke:none;" d="M188 87L189 88L188 87z"/>
<path style="fill:#ffffff; stroke:none;" d="M207 110C204.216 109.942 201.709 109.648 199 109C198.333 110.383 197.94 111.716 196.684 112.726C182.954 123.768 180.897 86.9256 195.777 95.5633C197.119 96.3424 198.051 97.8491 199 99L206 98C202.65 81.4055 179.126 85.5687 177.185 101C176.467 106.71 177.318 113.336 181.532 117.606C190.291 126.48 203.829 120.676 207 110z"/>
<path style="fill:#ddd6b9; stroke:none;" d="M195.667 87.3333C195.222 87.7778 196.278 87.7222 196.333 87.6667C196.778 87.2222 195.722 87.2778 195.667 87.3333z"/>
<path style="fill:#98ad45; stroke:none;" d="M197 87L198 88L197 87z"/>
<path style="fill:#72d6dd; stroke:none;" d="M148 88L149 89L148 88z"/>
<path style="fill:#ffebb9; stroke:none;" d="M164 88L165 89L164 88z"/>
<path style="fill:#98ad45; stroke:none;" d="M165 88L166 89L165 88z"/>
<path style="fill:#1c976f; stroke:none;" d="M184 88L185 89L184 88z"/>
<path style="fill:#98d6dd; stroke:none;" d="M185 88L186 89L185 88z"/>
<path style="fill:#ddebb9; stroke:none;" d="M199 88L200 89L199 88z"/>
<path style="fill:#729715; stroke:none;" d="M200 88L201 89L200 88z"/>
<path style="fill:#4ac2dd; stroke:none;" d="M231 88L232 89L231 88z"/>
<path style="fill:#989715; stroke:none;" d="M242 88L243 89L242 88M134.333 89.6667C134.278 89.7222 134.222 90.7778 134.667 90.3333C134.722 90.2778 134.778 89.2222 134.333 89.6667z"/>
<path style="fill:#4aadb9; stroke:none;" d="M146 89L147 90L146 89z"/>
<path style="fill:#ffeb95; stroke:none;" d="M166 89L167 90L166 89z"/>
<path style="fill:#72d6dd; stroke:none;" d="M183 89L184 90L183 89z"/>
<path style="fill:#ddd66f; stroke:none;" d="M201 89L202 90L201 89z"/>
<path style="fill:#1cadb9; stroke:none;" d="M230 89L231 90L230 89z"/>
<path style="fill:#bbad15; stroke:none;" d="M241 89L242 90L241 89z"/>
<path style="fill:#4ac2dd; stroke:none;" d="M125 90L126 91L125 90M145 90L146 91L145 90z"/>
<path style="fill:#ffebb9; stroke:none;" d="M167 90L168 91L167 90z"/>
<path style="fill:#728015; stroke:none;" d="M168 90L169 91L168 90z"/>
<path style="fill:#1c806f; stroke:none;" d="M181 90L182 91L181 90z"/>
<path style="fill:#ffeb95; stroke:none;" d="M202 90L203 91L202 90z"/>
<path style="fill:#1c9795; stroke:none;" d="M229 90L230 91L229 90z"/>
<path style="fill:#bbad15; stroke:none;" d="M240 90L241 91L240 90z"/>
<path style="fill:#1c806f; stroke:none;" d="M124 91L125 92L124 91z"/>
<path style="fill:#ffeb95; stroke:none;" d="M133 91L134 92L133 91z"/>
<path style="fill:#1cadb9; stroke:none;" d="M144 91L145 92L144 91z"/>
<path style="fill:#ffd66f; stroke:none;" d="M168 91L169 92L168 91z"/>
<path style="fill:#1c806f; stroke:none;" d="M180 91L181 92L180 91z"/>
<path style="fill:#ffeb95; stroke:none;" d="M203 91L204 92L203 91z"/>
<path style="fill:#1c806f; stroke:none;" d="M228 91L229 92L228 91z"/>
<path style="fill:#ddc245; stroke:none;" d="M239 91L240 92L239 91z"/>
<path style="fill:#98ebff; stroke:none;" d="M124 92L125 93L124 92z"/>
<path style="fill:#bbad15; stroke:none;" d="M133 92L134 93L133 92z"/>
<path style="fill:#1c806f; stroke:none;" d="M143 92L144 93L143 92z"/>
<path style="fill:#ddc245; stroke:none;" d="M169.333 92.6667C169.278 92.7222 169.222 93.7778 169.667 93.3333C169.722 93.2778 169.778 92.2222 169.333 92.6667z"/>
<path style="fill:#98ebff; stroke:none;" d="M180 92L181 93L180 92z"/>
<path style="fill:#ddc245; stroke:none;" d="M204 92L205 93L204 92z"/>
<path style="fill:#98ebff; stroke:none;" d="M228 92L229 93L228 92z"/>
<path style="fill:#ddc245; stroke:none;" d="M238 92L239 93L238 92z"/>
<path style="fill:#4a976f; stroke:none;" d="M121 93L122 94L121 93z"/>
<path style="fill:#98d6dd; stroke:none;" d="M122 93L123 94L122 93z"/>
<path style="fill:#ffd66f; stroke:none;" d="M132 93L133 94L132 93z"/>
<path style="fill:#4ac2dd; stroke:none;" d="M143 93L144 94L143 93M179 93L180 94L179 93z"/>
<path style="fill:#989715; stroke:none;" d="M205 93L206 94L205 93z"/>
<path style="fill:#72d6ff; stroke:none;" d="M227 93L228 94L227 93z"/>
<path style="fill:#ddd66f; stroke:none;" d="M237 93L238 94L237 93z"/>
<path style="fill:#728015; stroke:none;" d="M132 94L133 95L132 94z"/>
<path style="fill:#1c806f; stroke:none;" d="M142 94L143 95L142 94z"/>
<path style="fill:#ddd695; stroke:none;" d="M152 94L153 95L152 94z"/>
<path style="fill:#729745; stroke:none;" d="M153 94L154 95L153 94z"/>
<path style="fill:#72c2b9; stroke:none;" d="M159 94L160 95L159 94z"/>
<path style="fill:#ffffdd; stroke:none;" d="M169 94L169 106C170.512 102.396 170.512 97.6043 169 94z"/>
<path style="fill:#728015; stroke:none;" d="M170 94L170 97C170.696 95.4463 170.696 95.5537 170 94z"/>
<path style="fill:#1c9795; stroke:none;" d="M178 94L179 95L178 94z"/>
<path style="fill:#ddd695; stroke:none;" d="M189 94L190 95L189 94z"/>
<path style="fill:#729745; stroke:none;" d="M190 94L191 95L190 94z"/>
<path style="fill:#4a976f; stroke:none;" d="M194 94L195 95L194 94z"/>
<path style="fill:#98d6dd; stroke:none;" d="M195 94L196 95L195 94z"/>
<path style="fill:#ffd66f; stroke:none;" d="M205 94L206 95L205 94z"/>
<path style="fill:#72d6dd; stroke:none;" d="M226 94L227 95L226 94z"/>
<path style="fill:#ffd66f; stroke:none;" d="M236 94L237 95L236 94z"/>
<path style="fill:#729715; stroke:none;" d="M131 95L132 96L131 95z"/>
<path style="fill:#72d6ff; stroke:none;" d="M142.333 95.6667C142.278 95.7222 142.222 96.7778 142.667 96.3333C142.722 96.2778 142.778 95.2222 142.333 95.6667z"/>
<path style="fill:#bbad45; stroke:none;" d="M151 95L152 96L151 95z"/>
<path style="fill:#1c9795; stroke:none;" d="M160 95L161 96L160 95z"/>
<path style="fill:#72d6ff; stroke:none;" d="M178 95L179 96L178 95z"/>
<path style="fill:#989715; stroke:none;" d="M188 95L189 96L188 95z"/>
<path style="fill:#1c9795; stroke:none;" d="M196 95L197 96L196 95z"/>
<path style="fill:#989715; stroke:none;" d="M206 95L207 96L206 95z"/>
<path style="fill:#4ac2dd; stroke:none;" d="M225 95L226 96L225 95z"/>
<path style="fill:#ffeb95; stroke:none;" d="M235 95L236 96L235 95z"/>
<path style="fill:#ddd695; stroke:none;" d="M129 96L128 98C129.263 97.0287 129.392 97.3063 129 96z"/>
<path style="fill:#ffd66f; stroke:none;" d="M150 96L151 97L150 96z"/>
<path style="fill:#4ac2dd; stroke:none;" d="M161 96L161 99C161.696 97.4463 161.696 97.5537 161 96z"/>
<path style="fill:#1c806f; stroke:none;" d="M177 96L178 97L177 96z"/>
<path style="fill:#989715; stroke:none;" d="M187 96L188 97L187 96z"/>
<path style="fill:#4ac2dd; stroke:none;" d="M197 96L198 97L197 96z"/>
<path style="fill:#ddc245; stroke:none;" d="M206 96L207 97L206 96z"/>
<path style="fill:#1cadb9; stroke:none;" d="M224 96L225 97L224 96z"/>
<path style="fill:#ffeb95; stroke:none;" d="M234 96L235 97L234 96z"/>
<path style="fill:#729715; stroke:none;" d="M129 97L130 98L129 97z"/>
<path style="fill:#4a976f; stroke:none;" d="M143 97C144.248 97.6848 144.548 97.7488 146 98C144.752 97.3152 144.452 97.2512 143 97z"/>
<path style="fill:#bbd6dd; stroke:none;" d="M146.667 97.3333C146.222 97.7777 147.278 97.7223 147.333 97.6667C147.778 97.2222 146.722 97.2778 146.667 97.3333z"/>
<path style="fill:#989715; stroke:none;" d="M150 97L151 98L150 97M170 97L170 106C171.256 103.006 171.256 99.9941 170 97z"/>
<path style="fill:#72d6ff; stroke:none;" d="M177.333 97.6667C177.278 97.7223 177.222 98.7777 177.667 98.3333C177.722 98.2778 177.778 97.2222 177.333 97.6667z"/>
<path style="fill:#ddc245; stroke:none;" d="M186 97L187 98L186 97z"/>
<path style="fill:#1c806f; stroke:none;" d="M197 97L198 98L197 97z"/>
<path style="fill:#ffeb95; stroke:none;" d="M206 97L207 98L206 97z"/>
<path style="fill:#1c9795; stroke:none;" d="M223 97L224 98L223 97z"/>
<path style="fill:#ffebb9; stroke:none;" d="M233 97L234 98L233 97z"/>
<path style="fill:#728015; stroke:none;" d="M234 97L235 98L234 97z"/>
<path style="fill:#ddebb9; stroke:none;" d="M130 98L131 99L130 98z"/>
<path style="fill:#729715; stroke:none;" d="M131 98L132 99L131 98z"/>
<path style="fill:#989715; stroke:none;" d="M186 98L187 99L186 98z"/>
<path style="fill:#72d6ff; stroke:none;" d="M198 98L199 99L198 98z"/>
<path style="fill:#bbc295; stroke:none;" d="M201.667 98.3333C201.222 98.7777 202.278 98.7223 202.333 98.6667C202.778 98.2222 201.722 98.2778 201.667 98.3333z"/>
<path style="fill:#729745; stroke:none;" d="M203 98C204.248 98.6848 204.548 98.7488 206 99C204.752 98.3152 204.452 98.2512 203 98z"/>
<path style="fill:#72806f; stroke:none;" d="M222 98L223 99L222 98z"/>
<path style="fill:#728015; stroke:none;" d="M233 98L234 99L233 98z"/>
<path style="fill:#ddc245; stroke:none;" d="M132 99L133 100L132 99z"/>
<path style="fill:#1c976f; stroke:none;" d="M159 99L160 100L159 99z"/>
<path style="fill:#98d6dd; stroke:none;" d="M160 99L161 100L160 99z"/>
<path style="fill:#1c9795; stroke:none;" d="M176 99L176 102C176.696 100.446 176.696 100.554 176 99z"/>
<path style="fill:#ffd66f; stroke:none;" d="M185 99L185 102C185.696 100.446 185.696 100.554 185 99z"/>
<path style="fill:#989715; stroke:none;" d="M232 99L233 100L232 99z"/>
<path style="fill:#ffd66f; stroke:none;" d="M133 100L134 101L133 100z"/>
<path style="fill:#4a976f; stroke:none;" d="M155 100L156 101L155 100z"/>
<path style="fill:#72c2b9; stroke:none;" d="M156 100L157 101L156 100z"/>
<path style="fill:#bbebdd; stroke:none;" d="M157 100L158 101L157 100z"/>
<path style="fill:#ffd66f; stroke:none;" d="M231 100L232 101L231 100M134 101L135 102L134 101z"/>
<path style="fill:#72ad95; stroke:none;" d="M151 101L152 102L151 101z"/>
<path style="fill:#bbad15; stroke:none;" d="M232 101L233 102L232 101z"/>
<path style="fill:#ffeb95; stroke:none;" d="M107 102L107 113C108.431 109.59 108.431 105.41 107 102z"/>
<path style="fill:#4a8015; stroke:none;" d="M108 102L108 113C109.431 109.59 109.431 105.41 108 102z"/>
<path style="fill:#1c8016; stroke:none;" d="M109 102L109 113C113.52 113 121.915 114.354 125.218 110.436C127.127 108.171 126.179 104.878 123.721 103.514C119.584 101.219 113.546 102 109 102z"/>
<path style="fill:#4a9745; stroke:none;" d="M120 102C121.248 102.685 121.548 102.749 123 103C121.752 102.315 121.452 102.251 120 102z"/>
<path style="fill:#98d6dd; stroke:none;" d="M123 102L124 103L123 102z"/>
<path style="fill:#bbad15; stroke:none;" d="M135 102L136 103L135 102z"/>
<path style="fill:#1c976f; stroke:none;" d="M147 102L148 103L147 102z"/>
<path style="fill:#98d6dd; stroke:none;" d="M148 102L149 103L148 102z"/>
<path style="fill:#1cadb9; stroke:none;" d="M176 102L176 107C176.83 104.969 176.83 104.03 176 102z"/>
<path style="fill:#bbad15; stroke:none;" d="M185 102L185 106C185.71 104.241 185.71 103.759 185 102z"/>
<path style="fill:#ffeb95; stroke:none;" d="M232 102L233 103L232 102z"/>
<path style="fill:#72d6dd; stroke:none;" d="M125 103L126 104L125 103z"/>
<path style="fill:#ffeb95; stroke:none;" d="M135 103L136 104L135 103z"/>
<path style="fill:#1c976f; stroke:none;" d="M145 103L146 104L145 103z"/>
<path style="fill:#ddc245; stroke:none;" d="M233 103L234 104L233 103z"/>
<path style="fill:#72d6ff; stroke:none;" d="M126 104L127 105L126 104z"/>
<path style="fill:#989715; stroke:none;" d="M136 104L137 105L136 104z"/>
<path style="fill:#4ac2dd; stroke:none;" d="M144 104L145 105L144 104z"/>
<path style="fill:#728015; stroke:none;" d="M234 104L235 105L234 104z"/>
<path style="fill:#1c8045; stroke:none;" d="M126.333 105.667C126.278 105.722 126.222 106.778 126.667 106.333C126.722 106.278 126.778 105.222 126.333 105.667z"/>
<path style="fill:#98ebff; stroke:none;" d="M127.333 105.667C127.278 105.722 127.222 106.778 127.667 106.333C127.722 106.278 127.778 105.222 127.333 105.667z"/>
<path style="fill:#ffd66f; stroke:none;" d="M136.333 105.667C136.278 105.722 136.222 106.778 136.667 106.333C136.722 106.278 136.778 105.222 136.333 105.667z"/>
<path style="fill:#4ac2dd; stroke:none;" d="M143 105L144 106L143 105z"/>
<path style="fill:#ddc245; stroke:none;" d="M234 105L235 106L234 105z"/>
<path style="fill:#1cadb9; stroke:none;" d="M142 106L143 107L142 106z"/>
<path style="fill:#bbc295; stroke:none;" d="M158.667 106.333C158.222 106.778 159.278 106.722 159.333 106.667C159.778 106.222 158.722 106.278 158.667 106.333z"/>
<path style="fill:#729745; stroke:none;" d="M160 106L161 107L160 106z"/>
<path style="fill:#1cadb9; stroke:none;" d="M161.333 106.667C161.278 106.722 161.222 107.778 161.667 107.333C161.722 107.278 161.778 106.222 161.333 106.667z"/>
<path style="fill:#ffffb9; stroke:none;" d="M169 106L169 113C170.059 110.466 170.059 108.534 169 106z"/>
<path style="fill:#728015; stroke:none;" d="M170 106L170 113C171.059 110.466 171.059 108.534 170 106z"/>
<path style="fill:#ddc245; stroke:none;" d="M185 106L185 109C185.696 107.446 185.696 107.554 185 106z"/>
<path style="fill:#ffd6b9; stroke:none;" d="M225 106L226 107L225 106z"/>
<path style="fill:#989715; stroke:none;" d="M235 106L236 107L235 106z"/>
<path style="fill:#72d6ff; stroke:none;" d="M127.333 107.667C127.278 107.722 127.222 108.778 127.667 108.333C127.722 108.278 127.778 107.222 127.333 107.667z"/>
<path style="fill:#ffeb95; stroke:none;" d="M136 107L136 110C136.696 108.446 136.696 108.554 136 107z"/>
<path style="fill:#4a8015; stroke:none;" d="M137.333 107.667C137.278 107.722 137.222 108.778 137.667 108.333C137.722 108.278 137.778 107.222 137.333 107.667z"/>
<path style="fill:#bbc295; stroke:none;" d="M154 107L155 108L154 107z"/>
<path style="fill:#72ad45; stroke:none;" d="M155 107L156 108L155 107z"/>
<path style="fill:#1c8016; stroke:none;" d="M161 107C159.652 107.059 158.292 107.041 156.96 107.305C146.258 109.422 156.13 119.1 160.397 110.936C161.01 109.762 160.904 108.259 161 107z"/>
<path style="fill:#1c9795; stroke:none;" d="M176 107L176 110C176.696 108.446 176.696 108.554 176 107z"/>
<path style="fill:#ffeb95; stroke:none;" d="M224 107L225 108L224 107z"/>
<path style="fill:#1cadb9; stroke:none;" d="M226 107L227 108L226 107z"/>
<path style="fill:#ffd66f; stroke:none;" d="M235 107L236 108L235 107z"/>
<path style="fill:#1c9795; stroke:none;" d="M141 108L142 109L141 108z"/>
<path style="fill:#ddd66f; stroke:none;" d="M151 108L152 109L151 108z"/>
<path style="fill:#4ac2dd; stroke:none;" d="M161.333 108.667C161.278 108.722 161.222 109.778 161.667 109.333C161.722 109.278 161.778 108.222 161.333 108.667z"/>
<path style="fill:#ffeb95; stroke:none;" d="M223 108L224 109L223 108z"/>
<path style="fill:#98ebff; stroke:none;" d="M227 108L228 109L227 108z"/>
<path style="fill:#bbad15; stroke:none;" d="M236 108L237 109L236 108z"/>
<path style="fill:#1c806f; stroke:none;" d="M126 109L127 110L126 109z"/>
<path style="fill:#72d6ff; stroke:none;" d="M141 109L141 115C141.951 112.715 141.951 111.285 141 109z"/>
<path style="fill:#ddc245; stroke:none;" d="M150 109L151 110L150 109z"/>
<path style="fill:#728015; stroke:none;" d="M186 109L187 110L186 109z"/>
<path style="fill:#1c9795; stroke:none;" d="M198 109L199 110L198 109z"/>
<path style="fill:#ddebb9; stroke:none;" d="M200 109C201.248 109.685 201.548 109.749 203 110C201.752 109.315 201.452 109.251 200 109z"/>
<path style="fill:#72ad45; stroke:none;" d="M203 109C204.248 109.685 204.548 109.749 206 110C204.752 109.315 204.452 109.251 203 109z"/>
<path style="fill:#ffeb95; stroke:none;" d="M222 109L223 110L222 109z"/>
<path style="fill:#1cadb9; stroke:none;" d="M227 109L228 110L227 109z"/>
<path style="fill:#ffeb95; stroke:none;" d="M236 109L237 110L236 109z"/>
<path style="fill:#4ac2dd; stroke:none;" d="M126 110L127 111L126 110z"/>
<path style="fill:#bbad15; stroke:none;" d="M136.333 110.667C136.278 110.722 136.222 111.778 136.667 111.333C136.722 111.278 136.778 110.222 136.333 110.667z"/>
<path style="fill:#ffffb9; stroke:none;" d="M149.333 110.667C149.278 110.722 149.222 111.778 149.667 111.333C149.722 111.278 149.778 110.222 149.333 110.667z"/>
<path style="fill:#728015; stroke:none;" d="M150.333 110.667C150.278 110.722 150.222 111.778 150.667 111.333C150.722 111.278 150.778 110.222 150.333 110.667z"/>
<path style="fill:#98ebff; stroke:none;" d="M161.333 110.667C161.278 110.722 161.222 111.778 161.667 111.333C161.722 111.278 161.778 110.222 161.333 110.667z"/>
<path style="fill:#4ac2dd; stroke:none;" d="M177.333 110.667C177.278 110.722 177.222 111.778 177.667 111.333C177.722 111.278 177.778 110.222 177.333 110.667z"/>
<path style="fill:#bbad15; stroke:none;" d="M186 110L187 111L186 110z"/>
<path style="fill:#4ac2dd; stroke:none;" d="M198 110L199 111L198 110z"/>
<path style="fill:#bbad15; stroke:none;" d="M207 110L208 111L207 110z"/>
<path style="fill:#ffffb9; stroke:none;" d="M221 110L221 121C222.431 117.59 222.431 113.41 221 110z"/>
<path style="fill:#728015; stroke:none;" d="M222 110L222 121C223.431 117.59 223.431 113.41 222 110z"/>
<path style="fill:#72d6ff; stroke:none;" d="M228 110L229 111L228 110z"/>
<path style="fill:#ddc245; stroke:none;" d="M237 110L238 111L237 110z"/>
<path style="fill:#4aadb9; stroke:none;" d="M125 111L126 112L125 111z"/>
<path style="fill:#ffd66f; stroke:none;" d="M186 111L187 112L186 111z"/>
<path style="fill:#98ebff; stroke:none;" d="M198 111L199 112L198 111z"/>
<path style="fill:#728015; stroke:none;" d="M207 111L208 112L207 111z"/>
<path style="fill:#1c9795; stroke:none;" d="M228 111L229 112L228 111z"/>
<path style="fill:#728015; stroke:none;" d="M238 111L239 112L238 111z"/>
<path style="fill:#4a9745; stroke:none;" d="M121.667 112.333C121.222 112.778 122.278 112.722 122.333 112.667C122.778 112.222 121.722 112.278 121.667 112.333z"/>
<path style="fill:#72c295; stroke:none;" d="M123 112L124 113L123 112z"/>
<path style="fill:#728015; stroke:none;" d="M136 112L137 113L136 112z"/>
<path style="fill:#bbad15; stroke:none;" d="M150 112L151 113L150 112z"/>
<path style="fill:#4ac2dd; stroke:none;" d="M160 112L161 113L160 112z"/>
<path style="fill:#1c806f; stroke:none;" d="M177 112L178 113L177 112z"/>
<path style="fill:#bbad15; stroke:none;" d="M187 112L188 113L187 112z"/>
<path style="fill:#1cadb9; stroke:none;" d="M197 112L198 113L197 112z"/>
<path style="fill:#ffd66f; stroke:none;" d="M206 112L207 113L206 112z"/>
<path style="fill:#72d6ff; stroke:none;" d="M229 112L230 113L229 112z"/>
<path style="fill:#ddc245; stroke:none;" d="M238 112L239 113L238 112z"/>
<path style="fill:#ffd66f; stroke:none;" d="M135 113L136 114L135 113z"/>
<path style="fill:#728015; stroke:none;" d="M151 113L152 114L151 113z"/>
<path style="fill:#72c2dd; stroke:none;" d="M159 113L160 114L159 113z"/>
<path style="fill:#989715; stroke:none;" d="M170 113L170 116C170.696 114.446 170.696 114.554 170 113z"/>
<path style="fill:#72d6ff; stroke:none;" d="M178 113L179 114L178 113z"/>
<path style="fill:#bbad45; stroke:none;" d="M188 113L189 114L188 113z"/>
<path style="fill:#1c9795; stroke:none;" d="M196 113L197 114L196 113z"/>
<path style="fill:#bbad15; stroke:none;" d="M206 113L207 114L206 113z"/>
<path style="fill:#1c806f; stroke:none;" d="M229 113L230 114L229 113z"/>
<path style="fill:#989715; stroke:none;" d="M239 113L240 114L239 113M135 114L136 115L135 114z"/>
<path style="fill:#bbad45; stroke:none;" d="M152 114L153 115L152 114z"/>
<path style="fill:#72c2b9; stroke:none;" d="M157 114L158 115L157 114z"/>
<path style="fill:#1c9795; stroke:none;" d="M178 114L179 115L178 114z"/>
<path style="fill:#ddebb9; stroke:none;" d="M189 114L190 115L189 114z"/>
<path style="fill:#729745; stroke:none;" d="M190 114L191 115L190 114z"/>
<path style="fill:#72d6dd; stroke:none;" d="M195 114L196 115L195 114z"/>
<path style="fill:#ffeb95; stroke:none;" d="M205 114L206 115L205 114z"/>
<path style="fill:#4ac2dd; stroke:none;" d="M230 114L231 115L230 114z"/>
<path style="fill:#ffd66f; stroke:none;" d="M239 114L240 115L239 114z"/>
<path style="fill:#ddc245; stroke:none;" d="M134 115L135 116L134 115z"/>
<path style="fill:#1c9795; stroke:none;" d="M141 115L142 116L141 115z"/>
<path style="fill:#4ac2dd; stroke:none;" d="M179 115L180 116L179 115z"/>
<path style="fill:#bbad15; stroke:none;" d="M205 115L206 116L205 115z"/>
<path style="fill:#1c806f; stroke:none;" d="M230 115L231 116L230 115z"/>
<path style="fill:#bbad15; stroke:none;" d="M240 115L241 116L240 115z"/>
<path style="fill:#ffd66f; stroke:none;" d="M133 116L134 117L133 116z"/>
<path style="fill:#98ebff; stroke:none;" d="M142 116L143 117L142 116z"/>
<path style="fill:#ffd66f; stroke:none;" d="M170.333 116.667C170.278 116.722 170.222 117.778 170.667 117.333C170.722 117.278 170.778 116.222 170.333 116.667z"/>
<path style="fill:#98ebff; stroke:none;" d="M180 116L181 117L180 116z"/>
<path style="fill:#ffd66f; stroke:none;" d="M204 116L205 117L204 116z"/>
<path style="fill:#1cadb9; stroke:none;" d="M231 116L232 117L231 116z"/>
<path style="fill:#ffeb95; stroke:none;" d="M240 116L241 117L240 116M132 117L133 118L132 117z"/>
<path style="fill:#1c9795; stroke:none;" d="M142 117L143 118L142 117z"/>
<path style="fill:#ffeb95; stroke:none;" d="M161 117L162 118L161 117z"/>
<path style="fill:#72c2dd; stroke:none;" d="M162 117L163 118L162 117z"/>
<path style="fill:#1c806f; stroke:none;" d="M180 117L181 118L180 117z"/>
<path style="fill:#ffeb95; stroke:none;" d="M203 117L204 118L203 117z"/>
<path style="fill:#98ebff; stroke:none;" d="M232 117L233 118L232 117z"/>
<path style="fill:#ddc245; stroke:none;" d="M241 117L242 118L241 117M131 118L132 119L131 118z"/>
<path style="fill:#4ac2dd; stroke:none;" d="M143 118L144 119L143 118z"/>
<path style="fill:#ffeb95; stroke:none;" d="M160 118L161 119L160 118z"/>
<path style="fill:#1cadb9; stroke:none;" d="M162 118L163 119L162 118z"/>
<path style="fill:#728015; stroke:none;" d="M171 118L172 119L171 118z"/>
<path style="fill:#1c806f; stroke:none;" d="M181 118L182 119L181 118z"/>
<path style="fill:#ffeb95; stroke:none;" d="M202 118L203 119L202 118z"/>
<path style="fill:#1cadb9; stroke:none;" d="M232 118L233 119L232 118z"/>
<path style="fill:#728015; stroke:none;" d="M242 118L243 119L242 118z"/>
<path style="fill:#ddd695; stroke:none;" d="M129 119L130 120L129 119z"/>
<path style="fill:#729715; stroke:none;" d="M130 119L131 120L130 119z"/>
<path style="fill:#4ac2dd; stroke:none;" d="M144 119L145 120L144 119z"/>
<path style="fill:#ddd66f; stroke:none;" d="M159 119L160 120L159 119z"/>
<path style="fill:#1c806f; stroke:none;" d="M162 119L163 120L162 119z"/>
<path style="fill:#bbad15; stroke:none;" d="M171 119L172 120L171 119z"/>
<path style="fill:#72d6dd; stroke:none;" d="M183 119L184 120L183 119z"/>
<path style="fill:#ddd66f; stroke:none;" d="M201 119L202 120L201 119z"/>
<path style="fill:#72d6ff; stroke:none;" d="M233 119L234 120L233 119z"/>
<path style="fill:#ddc245; stroke:none;" d="M242 119L243 120L242 119z"/>
<path style="fill:#ddebdd; stroke:none;" d="M121 120C122.769 120.779 124.036 120.912 126 121C124.231 120.221 122.964 120.088 121 120z"/>
<path style="fill:#bbc295; stroke:none;" d="M126 120L127 121L126 120z"/>
<path style="fill:#729745; stroke:none;" d="M127 120L128 121L127 120z"/>
<path style="fill:#1c976f; stroke:none;" d="M145 120L146 121L145 120z"/>
<path style="fill:#ffebb9; stroke:none;" d="M157 120L158 121L157 120z"/>
<path style="fill:#729715; stroke:none;" d="M158 120L159 121L158 120z"/>
<path style="fill:#72d6ff; stroke:none;" d="M163 120L164 121L163 120z"/>
<path style="fill:#ffeb95; stroke:none;" d="M171 120L172 121L171 120z"/>
<path style="fill:#1c976f; stroke:none;" d="M184 120L185 121L184 120z"/>
<path style="fill:#98d6dd; stroke:none;" d="M185 120L186 121L185 120z"/>
<path style="fill:#ddd695; stroke:none;" d="M199 120L200 121L199 120z"/>
<path style="fill:#729715; stroke:none;" d="M200 120L201 121L200 120z"/>
<path style="fill:#1c9795; stroke:none;" d="M233 120L234 121L233 120z"/>
<path style="fill:#989715; stroke:none;" d="M243 120L244 121L243 120z"/>
<path style="fill:#1c976f; stroke:none;" d="M147 121L148 122L147 121z"/>
<path style="fill:#98c2b9; stroke:none;" d="M148 121L149 122L148 121z"/>
<path style="fill:#bbc295; stroke:none;" d="M155 121L156 122L155 121z"/>
<path style="fill:#729715; stroke:none;" d="M156 121L157 122L156 121z"/>
<path style="fill:#4aad95; stroke:none;" d="M187 121L188 122L187 121z"/>
<path style="fill:#ddebdd; stroke:none;" d="M188.667 121.333C188.222 121.778 189.278 121.722 189.333 121.667C189.778 121.222 188.722 121.278 188.667 121.333z"/>
<path style="fill:#bbd695; stroke:none;" d="M196 121L197 122L196 121z"/>
<path style="fill:#98ad45; stroke:none;" d="M197 121L198 122L197 121z"/>
</svg>
